<?xml version="1.0" standalone="no"?>
<!DOCTYPE svg PUBLIC "-//W3C//DTD SVG 20010904//EN"
 "http://www.w3.org/TR/2001/REC-SVG-20010904/DTD/svg10.dtd">
<svg version="1.0" xmlns="http://www.w3.org/2000/svg"
 width="520.000000pt" height="67.000000pt" viewBox="0 0 520.000000 67.000000"
 preserveAspectRatio="xMidYMid meet">
<metadata>
Created by potrace 1.13, written by Peter Selinger 2001-2015
</metadata>
<g transform="translate(0.000000,67.000000) scale(0.100000,-0.100000)"
fill="#000000" stroke="none">
<path d="M0 641 c0 -27 2 -29 60 -35 l60 -7 0 -239 0 -240 -44 0 c-62 0 -76
-7 -76 -41 l0 -29 165 0 165 0 0 29 c0 34 -14 41 -76 41 l-44 0 0 239 0 239
31 6 c17 3 44 6 60 6 26 0 29 4 29 30 l0 30 -165 0 -165 0 0 -29z"/>
<path d="M490 360 l0 -310 40 0 40 0 0 120 0 120 63 0 c144 0 223 54 241 165
11 63 -8 125 -48 162 -46 42 -90 53 -223 53 l-113 0 0 -310z m250 211 c56 -40
63 -114 16 -168 -22 -25 -31 -28 -105 -31 l-81 -4 0 117 0 118 73 -7 c44 -4
82 -14 97 -25z"/>
<path d="M3160 525 l0 -145 25 0 c24 0 25 2 25 66 0 76 12 104 43 104 38 0 47
-19 47 -97 0 -66 2 -73 20 -73 18 0 20 7 20 85 0 73 -3 88 -21 106 -17 17 -30
20 -65 16 l-44 -5 0 44 c0 40 -2 44 -25 44 l-25 0 0 -145z"/>
<path d="M2270 640 c0 -15 7 -20 25 -20 l25 0 0 -105 0 -105 -25 0 c-16 0 -25
-6 -25 -15 0 -12 15 -15 75 -15 60 0 75 3 75 15 0 9 -9 15 -25 15 l-25 0 0
105 0 105 25 0 c18 0 25 5 25 20 0 18 -7 20 -75 20 -68 0 -75 -2 -75 -20z"/>
<path d="M2490 521 c0 -134 1 -141 20 -141 17 0 20 7 20 49 l0 48 46 6 c61 6
89 34 89 87 0 59 -26 79 -108 87 l-67 6 0 -142z m117 78 c33 -28 2 -79 -48
-79 -28 0 -29 1 -29 51 l0 52 32 -7 c17 -3 37 -11 45 -17z"/>
<path d="M2997 633 c-4 -3 -7 -14 -7 -24 0 -11 -11 -20 -30 -24 -37 -8 -40
-35 -5 -35 24 0 25 -3 25 -57 0 -32 6 -69 13 -83 15 -30 54 -45 91 -36 40 10
33 34 -11 38 l-38 3 -3 68 -3 67 41 0 c33 0 40 3 40 20 0 17 -7 20 -40 20 -36
0 -40 3 -40 25 0 24 -18 34 -33 18z"/>
<path d="M1010 325 l0 -275 85 0 85 0 0 30 c0 29 -1 30 -50 30 l-50 0 0 220 0
220 50 0 c47 0 50 2 50 25 0 25 -1 25 -85 25 l-85 0 0 -275z"/>
<path d="M1520 575 c0 -23 3 -25 50 -25 l50 0 0 -220 0 -220 -50 0 c-49 0 -50
-1 -50 -30 l0 -30 85 0 85 0 0 275 0 275 -85 0 c-84 0 -85 0 -85 -25z"/>
<path d="M2700 581 c0 -6 18 -54 40 -106 45 -110 43 -141 -10 -151 -45 -10
-38 -34 10 -34 30 0 43 5 54 22 16 25 106 253 106 269 0 6 -10 9 -21 7 -17 -2
-28 -20 -49 -78 -26 -70 -29 -73 -38 -50 -5 14 -19 48 -30 75 -14 35 -26 51
-41 53 -11 2 -21 -1 -21 -7z"/>
<path d="M3423 575 c-52 -36 -52 -137 -1 -180 75 -64 173 7 153 112 -13 72
-94 108 -152 68z m97 -44 c15 -29 12 -87 -6 -105 -34 -35 -84 -5 -84 51 0 50
16 73 50 73 19 0 33 -7 40 -19z"/>
<path d="M3620 485 c0 -98 1 -105 20 -105 18 0 20 7 20 63 0 76 19 110 58 105
27 -3 27 -5 30 -85 3 -81 3 -83 27 -83 24 0 25 2 25 69 0 71 -12 120 -33 133
-19 12 -82 9 -95 -4 -9 -9 -12 -9 -12 0 0 7 -9 12 -20 12 -19 0 -20 -7 -20
-105z"/>
<path d="M1818 499 c-25 -14 -24 -65 2 -79 29 -16 60 4 60 38 0 45 -26 62 -62
41z"/>
<path d="M1220 482 c0 -4 27 -72 60 -151 57 -137 59 -144 46 -176 -17 -40 -46
-58 -81 -49 -22 5 -25 3 -25 -19 0 -30 26 -42 74 -33 36 7 55 24 80 73 20 39
136 342 136 354 0 5 -13 9 -29 9 -28 0 -31 -4 -68 -110 -21 -60 -40 -110 -43
-110 -3 0 -25 50 -48 110 -42 105 -45 110 -73 110 -16 0 -29 -3 -29 -8z"/>
<path d="M1804 226 c-3 -8 -4 -27 -2 -43 3 -25 7 -28 38 -28 34 0 35 1 35 40
0 38 -2 40 -33 43 -21 2 -34 -2 -38 -12z"/>
<path d="M3424 229 c-10 -17 13 -36 27 -22 12 12 4 33 -11 33 -5 0 -12 -5 -16
-11z"/>
<path d="M4844 229 c-10 -17 13 -36 27 -22 12 12 4 33 -11 33 -5 0 -12 -5 -16
-11z"/>
<path d="M2250 219 c0 -6 9 -13 20 -16 17 -5 20 -14 20 -63 0 -50 -3 -60 -20
-65 -37 -12 -21 -25 30 -25 48 0 67 14 35 26 -11 5 -15 22 -15 65 0 46 3 59
15 59 8 0 15 7 15 15 0 11 -12 15 -50 15 -30 0 -50 -4 -50 -11z"/>
<path d="M3970 210 c-28 -28 -30 -97 -4 -137 11 -18 24 -23 59 -23 33 0 45 4
45 14 0 10 -13 16 -37 18 -31 2 -39 8 -47 31 -6 17 -6 37 0 55 8 22 15 27 44
26 34 0 54 12 44 28 -11 17 -84 8 -104 -12z"/>
<path d="M2553 196 c-27 -28 -29 -36 -9 -36 11 0 16 -15 18 -52 l3 -53 38 -3
c28 -2 37 0 37 12 0 10 -9 16 -25 16 -22 0 -25 4 -25 40 0 36 3 40 25 40 16 0
25 6 25 15 0 9 -9 15 -25 15 -16 0 -25 6 -25 15 0 21 -11 18 -37 -9z"/>
<path d="M3263 196 c-27 -28 -29 -36 -9 -36 11 0 16 -15 18 -52 l3 -53 38 -3
c28 -2 37 0 37 12 0 10 -9 16 -25 16 -22 0 -25 4 -25 40 0 36 3 40 25 40 16 0
25 6 25 15 0 9 -9 15 -25 15 -16 0 -25 6 -25 15 0 21 -11 18 -37 -9z"/>
<path d="M4690 206 c0 -8 -7 -16 -15 -20 -19 -7 -20 -26 -1 -26 11 0 16 -15
18 -52 l3 -53 38 -3 c28 -2 37 0 37 12 0 10 -9 16 -25 16 -22 0 -25 4 -25 40
0 36 3 40 25 40 16 0 25 6 25 15 0 9 -9 15 -25 15 -16 0 -25 6 -25 15 0 8 -7
15 -15 15 -8 0 -15 -6 -15 -14z"/>
<path d="M2390 118 c0 -53 3 -68 14 -68 11 0 16 15 18 53 3 44 6 52 23 52 17
0 20 -8 23 -52 2 -38 7 -53 18 -53 19 0 20 113 1 128 -7 6 -32 10 -55 9 l-42
-1 0 -68z"/>
<path d="M2690 170 c-26 -26 -26 -81 -2 -103 24 -22 92 -23 92 -2 0 10 -10 15
-34 15 -21 0 -36 6 -40 15 -4 12 4 15 39 15 41 0 45 2 45 23 0 51 -63 74 -100
37z m60 -20 c0 -5 -12 -10 -26 -10 -14 0 -23 4 -19 10 3 6 15 10 26 10 10 0
19 -4 19 -10z"/>
<path d="M2830 120 c0 -54 3 -70 14 -70 11 0 16 15 18 52 3 50 5 53 33 58 17
3 30 10 30 15 0 15 -44 18 -61 5 -10 -9 -14 -9 -14 -1 0 6 -4 11 -10 11 -6 0
-10 -30 -10 -70z"/>
<path d="M2971 181 c-22 -14 -5 -28 29 -23 40 6 39 -15 -2 -26 -73 -19 -62
-76 16 -78 l46 -2 0 63 c0 48 -4 64 -16 69 -22 9 -57 7 -73 -3z m59 -86 c0 -8
-9 -15 -20 -15 -11 0 -20 7 -20 15 0 8 9 15 20 15 11 0 20 -7 20 -15z"/>
<path d="M3121 171 c-27 -27 -28 -82 -3 -104 24 -22 92 -23 92 -2 0 10 -11 15
-35 15 -29 0 -36 4 -41 25 -8 33 12 57 45 53 18 -2 26 2 26 12 0 25 -60 25
-84 1z"/>
<path d="M3390 175 c0 -8 7 -15 15 -15 11 0 15 -11 15 -39 0 -25 -5 -41 -15
-45 -33 -12 -12 -26 40 -26 55 0 73 13 35 25 -17 5 -20 15 -20 61 l0 54 -35 0
c-24 0 -35 -5 -35 -15z"/>
<path d="M3515 173 c4 -10 16 -42 27 -70 15 -38 26 -53 39 -53 11 0 19 2 19 4
0 2 11 33 25 70 23 62 24 66 6 66 -13 0 -22 -12 -31 -45 -7 -25 -16 -45 -20
-45 -4 0 -13 20 -20 45 -9 34 -17 45 -32 45 -15 0 -18 -4 -13 -17z"/>
<path d="M3680 170 c-24 -24 -26 -67 -4 -98 13 -19 24 -22 57 -20 51 4 64 28
14 28 -19 0 -40 7 -47 15 -11 13 -6 15 34 15 42 0 46 2 46 23 0 51 -63 74
-100 37z m65 -20 c4 -6 -5 -10 -20 -10 -15 0 -24 4 -20 10 3 6 12 10 20 10 8
0 17 -4 20 -10z"/>
<path d="M4107 172 c-21 -23 -22 -86 -1 -106 23 -24 70 -20 88 6 48 68 -33
160 -87 100z m63 -27 c7 -9 10 -25 6 -41 -9 -33 -49 -31 -54 4 -7 48 21 69 48
37z"/>
<path d="M4220 119 c0 -55 3 -69 15 -69 11 0 15 12 15 49 0 50 13 74 24 45 3
-9 6 -33 6 -55 0 -21 5 -39 10 -39 6 0 10 19 10 43 0 49 13 79 24 52 3 -9 6
-34 6 -56 0 -28 4 -39 15 -39 16 0 20 61 6 110 -6 23 -12 25 -69 27 l-62 1 0
-69z"/>
<path d="M4370 94 c0 -77 3 -94 15 -94 10 0 15 10 15 28 0 26 2 28 32 24 39
-6 58 17 58 68 0 48 -23 69 -78 68 l-42 0 0 -94z m86 41 c8 -34 -1 -55 -26
-55 -16 0 -20 6 -20 33 0 19 3 37 7 40 14 15 33 6 39 -18z"/>
<path d="M4520 126 c0 -71 4 -76 71 -76 l39 0 0 70 c0 54 -3 70 -14 70 -11 0
-16 -15 -18 -52 -3 -46 -6 -53 -25 -56 -22 -3 -23 0 -23 52 0 43 -3 56 -15 56
-12 0 -15 -14 -15 -64z"/>
<path d="M4810 175 c0 -8 7 -15 15 -15 11 0 15 -11 15 -39 0 -31 -4 -41 -20
-46 -39 -12 -19 -25 40 -25 61 0 81 14 35 26 -23 6 -25 11 -25 60 0 53 0 54
-30 54 -20 0 -30 -5 -30 -15z"/>
<path d="M4940 119 c0 -54 3 -69 14 -69 11 0 16 14 18 46 2 32 9 51 21 58 24
15 37 -6 37 -61 0 -33 4 -43 16 -43 14 0 16 10 12 61 -5 69 -14 79 -75 77
l-43 -1 0 -68z"/>
<path d="M5101 176 c-7 -8 -10 -35 -8 -65 2 -28 0 -51 -5 -51 -5 0 -8 -12 -6
-27 3 -27 5 -28 58 -28 l55 0 0 35 c0 33 -2 35 -38 38 -37 3 -43 22 -8 22 24
0 37 17 46 58 l7 32 -45 0 c-26 0 -49 -6 -56 -14z m54 -36 c0 -22 -29 -18 -33
3 -3 14 1 18 15 15 10 -2 18 -10 18 -18z m13 -102 c-7 -20 -58 -23 -58 -4 0
11 10 16 31 16 20 0 29 -4 27 -12z"/>
</g>
</svg>
